<svg width="46" height="46" viewBox="0 0 46 46" fill="none" xmlns="http://www.w3.org/2000/svg">
<path d="M45.3 14.05L38.85 7.54999C38.45 7.14999 37.9 6.94999 37.35 6.99999L28.1 7.74999C20.2 1.04999 10.25 -1.55001 2.05 1.19999L1.4 1.39999L1.2 2.04999C-1.55 10.25 1.05 20.2 7.8 28.1L7 37.35C6.95 37.9 7.15 38.45 7.55 38.85L14 45.3C14.35 45.65 14.85 45.85 15.35 45.85C15.55 45.85 15.75 45.8 16 45.75C16.7 45.5 17.2 44.9 17.3 44.15L18.25 36.35C19.9 37.2 21.6 37.9 23.35 38.45L23.55 38.5C23.9 38.6 24.3 38.5 24.55 38.25L38.3 24.5C38.55 24.25 38.65 23.85 38.55 23.5L38.5 23.35C37.95 21.6 37.25 19.9 36.4 18.25L44.2 17.3C44.95 17.2 45.55 16.7 45.8 16C46 15.3 45.85 14.55 45.3 14.05ZM14.75 42.15L9.75 37.15L10.3 30.75C11.95 32.35 13.75 33.7 15.6 34.9L14.75 42.15ZM23.35 35.6C19.1 34.15 15.05 31.6 11.6 28.2C4.5 21.1 1.35 11.3 3.6 3.59999C11.3 1.34999 21.1 4.49999 28.2 11.6C31.65 15.05 34.2 19.1 35.6 23.35L23.35 35.6ZM34.95 15.65C33.75 13.8 32.35 12 30.8 10.35L37.2 9.79999L42.2 14.8L34.95 15.65Z" fill="#3182CE"/>
<path d="M15.05 15.05C13.2 16.9 13.2 19.9 15.05 21.8C16 22.75 17.2 23.2 18.4 23.2C19.6 23.2 20.85 22.75 21.75 21.8C23.6 19.95 23.6 16.95 21.75 15.05C19.9 13.2 16.9 13.2 15.05 15.05ZM19.8 19.8C19 20.6 17.75 20.6 16.95 19.8C16.15 19 16.15 17.75 16.95 16.95C17.35 16.55 17.85 16.35 18.35 16.35C18.85 16.35 19.4 16.55 19.75 16.95C20.6 17.75 20.6 19.05 19.8 19.8Z" fill="#3182CE"/>
<path d="M41 27.65C40.45 27.1 39.6 27.1 39.05 27.65L27.55 39.15C27 39.7 27 40.55 27.55 41.1C27.65 41.2 27.8 41.3 27.9 41.35C32.5 44.4 38.1 45.2 42.5 43.35C42.65 43.3 42.8 43.2 42.95 43.05C43.1 42.9 43.2 42.75 43.25 42.6C45.1 38.2 44.3 32.6 41.25 28C41.2 27.85 41.1 27.75 41 27.65ZM40.9 41C37.8 42.05 34.1 41.65 30.75 39.85L39.75 30.85C41.55 34.2 41.95 37.9 40.9 41Z" fill="#3182CE"/>
</svg>
