<svg width="39" height="64" viewBox="0 0 39 64" fill="none" xmlns="http://www.w3.org/2000/svg">
<path d="M38.5995 0.581089C38.3839 0.22161 37.9839 0 37.5506 0H12.6232C12.1044 0 11.6432 0.316607 11.4773 0.786815L0.794133 31.0625C0.669659 31.4155 0.730606 31.8043 0.957627 32.1069C1.18481 32.4094 1.55049 32.589 1.94004 32.589H12.0676L0.41152 62.4387C0.20546 62.9664 0.426998 63.5596 0.936182 63.843C1.12644 63.9488 1.33605 64 1.54388 64C1.89215 64 2.2351 63.8563 2.47196 63.5856L34.9172 26.498C35.2185 26.1535 35.2841 25.6733 35.0853 25.2663C34.8867 24.8593 34.4594 24.5991 33.9897 24.5991H24.6229L38.5946 1.74049C38.8133 1.38271 38.8152 0.940569 38.5995 0.581089ZM21.4709 25.1717C21.2523 25.5295 21.2503 25.9717 21.4661 26.3311C21.6816 26.6906 22.0817 26.9122 22.5149 26.9122H31.4008L5.14735 56.9225L14.9431 31.837C15.0817 31.482 15.0297 31.0844 14.8036 30.7729C14.5777 30.4615 14.2066 30.2757 13.8102 30.2757H3.62447L13.4913 2.31325H35.4428L21.4709 25.1717Z" fill="#3182CE"/>
</svg>
